<svg id="Logo" xmlns="http://www.w3.org/2000/svg" viewBox="0 0 174.667 51.022">
  <g id="Group_18777" transform="translate(123.662)">
    <path id="Path_27697" d="M18.882,10.8,15.573,7.3C10.609,1.947,7.786,0,5.256,0a5.008,5.008,0,0,0-3.5,1.46A5.448,5.448,0,0,0,0,5.548V43.214A7.6,7.6,0,0,0,7.4,51h3.309V11.388h0V10.8h8.176Z" transform="translate(0.002 0.021)" fill="#87cb40" fill-rule="evenodd"/>
    <path id="Path_27698" d="M33,40.3l3.309,3.5C41.273,49.154,44,51,46.626,51a5.136,5.136,0,0,0,3.893-1.849,5.784,5.784,0,0,0,1.363-3.7V7.886A7.6,7.6,0,0,0,44.485.1H41.078V39.713h0V40.3Z" transform="translate(-0.879 0.018)" fill="#87cb40" fill-rule="evenodd"/>
    <path id="Path_27699" d="M26.521,3.017l13.821,14.7-14.7,15.573,6.034,6.326L35.572,43.8c4.964,5.353,7.689,7.2,10.317,7.2H32.847c-3.8,0-5.548-.487-8.078-3.017L10.85,33.286l14.7-15.573L19.61,11.387C16.982,8.662,15.717,7.2,15.717,7.2,10.753,1.946,7.931,0,5.4,0H19.318A8.785,8.785,0,0,1,26.521,3.017Z" transform="translate(-0.142 0.022)" fill="#87cb40" fill-rule="evenodd"/>
  </g>
  <g id="Group_18778" transform="translate(0 2.993)">
    <path id="Path_27700" d="M104.046,17.422a2.928,2.928,0,0,0,2.92-2.92V5.84h.973a1.952,1.952,0,0,1,1.947,1.947V14.5a5.857,5.857,0,0,1-5.84,5.84h-2.823v-.973a1.952,1.952,0,0,1,1.947-1.947Zm-81.66-1.46a5.015,5.015,0,0,1-3.8-1.752,5.531,5.531,0,0,1-3.7,1.752H5.84A5.857,5.857,0,0,1,0,10.122V8.76A5.857,5.857,0,0,1,5.84,2.92H8.662v.973A1.952,1.952,0,0,1,6.716,5.84a8.9,8.9,0,0,0-1.655.1A3.009,3.009,0,0,0,2.92,8.76v1.265a2.928,2.928,0,0,0,2.92,2.92H14.4a2.928,2.928,0,0,0,2.92-2.92V2.92H18.3a1.99,1.99,0,0,1,1.849,1.363,4.215,4.215,0,0,0,.1.487V10.8a2.142,2.142,0,0,0,4.283.1V2.92H25.5a1.952,1.952,0,0,1,1.947,1.947V10.9a.877.877,0,0,0,.1.487,2.113,2.113,0,0,0,2.141,1.655H46.329V8.76a2.928,2.928,0,0,0-2.92-2.92H34.844v4.38h-.973a1.952,1.952,0,0,1-1.947-1.947V2.92H43.409a5.857,5.857,0,0,1,5.84,5.84v7.2H29.686a5.093,5.093,0,0,1-3.6-1.557,5.318,5.318,0,0,1-3.7,1.557ZM11.582,2.92V5.84H14.5V2.92Zm31.827,14.5h2.92v2.92h-2.92Zm-4.38,0h2.92v2.92h-2.92Zm-4.283,0h2.92v2.92h-2.92Zm-10.122,0h2.92v2.92h-2.92v-2.92Zm-4.38,0h2.92v2.92h-2.92Zm58.593-1.46a5.015,5.015,0,0,1-3.8-1.752,5.56,5.56,0,0,1-3.8,1.752H57.911a5.857,5.857,0,0,1-5.84-5.84V8.76a5.857,5.857,0,0,1,5.84-5.84h2.823v.973A1.952,1.952,0,0,1,58.787,5.84a8.9,8.9,0,0,0-1.655.1A3.009,3.009,0,0,0,54.991,8.76v1.265a2.928,2.928,0,0,0,2.92,2.92H70.759a2.868,2.868,0,0,0,2.92-2.92h0V2.92h.973A1.99,1.99,0,0,1,76.5,4.283a1.234,1.234,0,0,1,.1.584V10.9A2.316,2.316,0,0,0,78.74,13.14,2.23,2.23,0,0,0,80.978,11.1V2.92h.973A1.952,1.952,0,0,1,83.9,4.866V11a2.16,2.16,0,0,0,2.239,2.044A2.123,2.123,0,0,0,88.181,11V2.92h.973A1.952,1.952,0,0,1,91.1,4.866v5.256a2.928,2.928,0,0,0,2.92,2.92h1.363V2.92h.973A1.991,1.991,0,0,1,98.3,4.672v11.29H93.631a5.761,5.761,0,0,1-3.8-1.752,5.071,5.071,0,0,1-7.105.584l-.292-.292a5.433,5.433,0,0,1-3.6,1.46ZM67.936,2.92V5.84h2.92V2.92Zm-4.283,0V5.84h2.92V2.92ZM101.223,14.6h2.92V1.947A1.952,1.952,0,0,0,102.2,0h-.973Z" fill="#606060" fill-rule="evenodd"/>
    <path id="Path_27701" d="M35.331,36.416v2.92h5.84v-2.92ZM99.568,40.8a5.071,5.071,0,0,0,.876,2.823,6.551,6.551,0,0,0,1.363,1.46,5.15,5.15,0,0,0,2.92.876h5.158v-.973a1.952,1.952,0,0,0-1.947-1.947h-3.212a2.183,2.183,0,0,1-2.141-2.239v-1.46h5.937v-2.92h-5.937v-1.46a2.316,2.316,0,0,1,2.141-2.239h3.212a1.952,1.952,0,0,0,1.947-1.947V29.8h-5.158a5.15,5.15,0,0,0-2.92.876,4.883,4.883,0,0,0-1.363,1.46,5.071,5.071,0,0,0-.876,2.823V40.8Zm-31.438,0a5.071,5.071,0,0,0,.876,2.823,6.551,6.551,0,0,0,1.363,1.46,5.15,5.15,0,0,0,2.92.876h5.158v-.973A1.952,1.952,0,0,0,76.5,43.034H73.289A2.183,2.183,0,0,1,71.148,40.8v-1.46h5.937v-2.92H71.148v-1.46a2.316,2.316,0,0,1,2.141-2.239H76.5a1.952,1.952,0,0,0,1.947-1.947V29.8H73.289a5.15,5.15,0,0,0-2.92.876,4.883,4.883,0,0,0-1.363,1.46,5.071,5.071,0,0,0-.876,2.823V40.8Zm-25.014-11a1.952,1.952,0,0,0-1.947,1.947v.973h4.38V43.91A1.952,1.952,0,0,0,47.5,45.857h.973V32.717H50.9a1.952,1.952,0,0,0,1.947-1.947V29.8Zm49.346,0a5.2,5.2,0,0,1,5.061,4.185,3.311,3.311,0,0,1,.1.973v10.9h-.973A1.952,1.952,0,0,1,94.7,43.91V34.956a2.239,2.239,0,0,0-4.477,0h0v10.9h-.973A1.952,1.952,0,0,1,87.3,43.91V35.734a3.032,3.032,0,0,0-3.017-3.017H82.925v13.14h-.973a1.952,1.952,0,0,1-1.947-1.947V29.8h4.769a6.017,6.017,0,0,1,3.8,1.752A5.387,5.387,0,0,1,92.463,29.8Zm-29.2,14.21a1.952,1.952,0,0,0,1.947,1.947h.973V31.744A1.952,1.952,0,0,0,64.238,29.8h-.973v6.521h-5.84V31.744A1.952,1.952,0,0,0,55.478,29.8H54.5V43.91a1.952,1.952,0,0,0,1.947,1.947h.973V39.238h5.84v4.769ZM0,44.007a1.952,1.952,0,0,0,1.947,1.947H2.92v-5.84h3.5l2.141,5.84H11.68L9.246,39.433A5.194,5.194,0,0,0,10.9,32.328a5.037,5.037,0,0,0-2.433-2.044,4.358,4.358,0,0,0-1.947-.389H4.38v1.071a1.848,1.848,0,0,0,1.849,1.849H6.91a2.288,2.288,0,0,1,1.947,2.141h0A2,2,0,0,1,7.3,37a1.443,1.443,0,0,1-.681.1H2.92v-5.45A1.952,1.952,0,0,0,.973,29.7H0V44.007Zm17.617,0a1.952,1.952,0,0,0,1.947,1.947h.973V32.717H22.97a1.952,1.952,0,0,0,1.947-1.947V29.8H15.183a1.952,1.952,0,0,0-1.947,1.947v.973h4.38v11.29ZM29.394,31.744V40.7a2.316,2.316,0,0,0,2.141,2.239h3.212a1.952,1.952,0,0,1,1.947,1.947v.973H31.535a5.15,5.15,0,0,1-2.92-.876,4.884,4.884,0,0,1-1.363-1.46,5.071,5.071,0,0,1-.876-2.823V29.8h.973a1.975,1.975,0,0,1,2.044,1.947Z" transform="translate(0 -0.793)" fill="#606060" fill-rule="evenodd"/>
  </g>
</svg>
